<svg width="40" height="40" viewBox="0 0 40 40" fill="none" xmlns="http://www.w3.org/2000/svg">
<g clip-path="url(#clip0_115_2046)">
<path d="M12.1631 24.2972H9.58984V20.314C9.58984 19.0182 9.07257 17.8418 8.23456 16.9781C9.66583 16.0269 10.6116 14.4006 10.6116 12.5568C10.6116 9.63135 8.23151 7.25098 5.30579 7.25098C2.38007 7.25098 0 9.63104 0 12.5568C0 14.1507 0.707397 15.5814 1.82343 16.5549C0.713806 17.4338 0 18.7915 0 20.314V32.178H7.82227V40.0003H15.7031V27.8372C15.7031 25.8853 14.115 24.2972 12.1631 24.2972ZM5.30579 9.59473C6.93909 9.59473 8.26782 10.9235 8.26782 12.5568C8.26782 14.1901 6.93909 15.5191 5.30579 15.5191C3.67249 15.5191 2.34375 14.1901 2.34375 12.5568C2.34375 10.9235 3.67249 9.59473 5.30579 9.59473ZM13.3594 37.6566H10.166V29.8343H2.34375V20.314C2.34375 18.9624 3.4433 17.8629 4.79492 17.8629C6.14655 17.8629 7.24609 18.9624 7.24609 20.314V26.6409H12.1631C12.8226 26.6409 13.3594 27.1777 13.3594 27.8372V37.6566Z" fill="black"/>
<path d="M38.1766 16.5549C39.2926 15.5814 40 14.1507 40 12.5568C40 9.63104 37.6199 7.25098 34.6942 7.25098C31.7685 7.25098 29.3884 9.63104 29.3884 12.5568C29.3884 14.4003 30.3342 16.0269 31.7654 16.9781C30.9274 17.8418 30.4102 19.0182 30.4102 20.3137V24.2972H27.8369C25.885 24.2972 24.2969 25.8853 24.2969 27.8372V40.0003H32.1777V32.178H40V20.314C40 18.7915 39.2862 17.4338 38.1766 16.5549ZM34.6942 9.59473C36.3275 9.59473 37.6562 10.9235 37.6562 12.5568C37.6562 14.1901 36.3275 15.5191 34.6942 15.5191C33.0609 15.5191 31.7322 14.1901 31.7322 12.5568C31.7322 10.9235 33.0609 9.59473 34.6942 9.59473ZM37.6562 29.8343H29.834V37.6566H26.6406V27.8372C26.6406 27.1777 27.1774 26.6409 27.8369 26.6409H32.7539V20.314C32.7539 18.9624 33.8535 17.8629 35.2051 17.8629C36.5567 17.8629 37.6562 18.9624 37.6562 20.314V29.8343Z" fill="black"/>
<path d="M27.5 9.505V3.30719C27.5 1.48346 26.0165 0 24.1928 0H15.8072C13.9835 0 12.5 1.48346 12.5 3.30719V9.505C12.5 11.3287 13.9835 12.8125 15.8072 12.8125H17.2269L20 17.6157L22.7731 12.8125H24.1928C26.0165 12.8125 27.5 11.3287 27.5 9.505ZM25.1562 9.505C25.1562 10.0366 24.7241 10.4688 24.1928 10.4688H21.42L20 12.9282L18.58 10.4688H15.8072C15.2759 10.4688 14.8438 10.0366 14.8438 9.505V3.30719C14.8438 2.77588 15.2759 2.34375 15.8072 2.34375H24.1928C24.7241 2.34375 25.1562 2.77588 25.1562 3.30719V9.505Z" fill="black"/>
</g>
<defs>
<clipPath id="clip0_115_2046">
<rect width="40" height="40" fill="white"/>
</clipPath>
</defs>
</svg>
