<svg width="40" height="40" viewBox="0 0 40 40" fill="none" xmlns="http://www.w3.org/2000/svg">
<path d="M30.1562 17.9688C31.0192 17.9688 31.7188 17.2692 31.7188 16.4062C31.7188 15.5433 31.0192 14.8438 30.1562 14.8438C29.2933 14.8438 28.5938 15.5433 28.5938 16.4062C28.5938 17.2692 29.2933 17.9688 30.1562 17.9688Z" fill="black"/>
<path d="M33.75 3.125H31.7188V1.5625C31.7188 0.699531 31.0192 0 30.1562 0C29.2933 0 28.5938 0.699531 28.5938 1.5625V3.125H21.4844V1.5625C21.4844 0.699531 20.7848 0 19.9219 0C19.0589 0 18.3594 0.699531 18.3594 1.5625V3.125H11.3281V1.5625C11.3281 0.699531 10.6286 0 9.76562 0C8.90266 0 8.20312 0.699531 8.20312 1.5625V3.125H6.25C2.80375 3.125 0 5.92875 0 9.375V33.75C0 37.1963 2.80375 40 6.25 40H18.2031C19.0661 40 19.7656 39.3005 19.7656 38.4375C19.7656 37.5745 19.0661 36.875 18.2031 36.875H6.25C4.52688 36.875 3.125 35.4731 3.125 33.75V9.375C3.125 7.65188 4.52688 6.25 6.25 6.25H8.20312V7.8125C8.20312 8.67547 8.90266 9.375 9.76562 9.375C10.6286 9.375 11.3281 8.67547 11.3281 7.8125V6.25H18.3594V7.8125C18.3594 8.67547 19.0589 9.375 19.9219 9.375C20.7848 9.375 21.4844 8.67547 21.4844 7.8125V6.25H28.5938V7.8125C28.5938 8.67547 29.2933 9.375 30.1562 9.375C31.0192 9.375 31.7188 8.67547 31.7188 7.8125V6.25H33.75C35.4731 6.25 36.875 7.65188 36.875 9.375V18.2812C36.875 19.1442 37.5745 19.8438 38.4375 19.8438C39.3005 19.8438 40 19.1442 40 18.2812V9.375C40 5.92875 37.1963 3.125 33.75 3.125Z" fill="black"/>
<path d="M30.5469 21.0938C25.3344 21.0938 21.0938 25.3344 21.0938 30.5469C21.0938 35.7594 25.3344 40 30.5469 40C35.7594 40 40 35.7594 40 30.5469C40 25.3344 35.7594 21.0938 30.5469 21.0938ZM30.5469 36.875C27.0576 36.875 24.2188 34.0363 24.2188 30.5469C24.2188 27.0575 27.0576 24.2188 30.5469 24.2188C34.0362 24.2188 36.875 27.0575 36.875 30.5469C36.875 34.0363 34.0362 36.875 30.5469 36.875Z" fill="black"/>
<path d="M32.8125 28.9844H32.1094V27.3438C32.1094 26.4808 31.4098 25.7812 30.5469 25.7812C29.6839 25.7812 28.9844 26.4808 28.9844 27.3438V30.5469C28.9844 31.4098 29.6839 32.1094 30.5469 32.1094H32.8125C33.6755 32.1094 34.375 31.4098 34.375 30.5469C34.375 29.6839 33.6755 28.9844 32.8125 28.9844Z" fill="black"/>
<path d="M23.3594 17.9688C24.2223 17.9688 24.9219 17.2692 24.9219 16.4062C24.9219 15.5433 24.2223 14.8438 23.3594 14.8438C22.4964 14.8438 21.7969 15.5433 21.7969 16.4062C21.7969 17.2692 22.4964 17.9688 23.3594 17.9688Z" fill="black"/>
<path d="M16.5625 24.7656C17.4254 24.7656 18.125 24.0661 18.125 23.2031C18.125 22.3402 17.4254 21.6406 16.5625 21.6406C15.6996 21.6406 15 22.3402 15 23.2031C15 24.0661 15.6996 24.7656 16.5625 24.7656Z" fill="black"/>
<path d="M9.76562 17.9688C10.6286 17.9688 11.3281 17.2692 11.3281 16.4062C11.3281 15.5433 10.6286 14.8438 9.76562 14.8438C8.90268 14.8438 8.20312 15.5433 8.20312 16.4062C8.20312 17.2692 8.90268 17.9688 9.76562 17.9688Z" fill="black"/>
<path d="M9.76562 24.7656C10.6286 24.7656 11.3281 24.0661 11.3281 23.2031C11.3281 22.3402 10.6286 21.6406 9.76562 21.6406C8.90268 21.6406 8.20312 22.3402 8.20312 23.2031C8.20312 24.0661 8.90268 24.7656 9.76562 24.7656Z" fill="black"/>
<path d="M9.76562 31.5625C10.6286 31.5625 11.3281 30.8629 11.3281 30C11.3281 29.1371 10.6286 28.4375 9.76562 28.4375C8.90268 28.4375 8.20312 29.1371 8.20312 30C8.20312 30.8629 8.90268 31.5625 9.76562 31.5625Z" fill="black"/>
<path d="M16.5625 31.5625C17.4254 31.5625 18.125 30.8629 18.125 30C18.125 29.1371 17.4254 28.4375 16.5625 28.4375C15.6996 28.4375 15 29.1371 15 30C15 30.8629 15.6996 31.5625 16.5625 31.5625Z" fill="black"/>
<path d="M16.5625 17.9688C17.4254 17.9688 18.125 17.2692 18.125 16.4062C18.125 15.5433 17.4254 14.8438 16.5625 14.8438C15.6996 14.8438 15 15.5433 15 16.4062C15 17.2692 15.6996 17.9688 16.5625 17.9688Z" fill="black"/>
</svg>
