<svg width="40" height="40" viewBox="0 0 40 40" fill="none" xmlns="http://www.w3.org/2000/svg">
<g clip-path="url(#clip0_115_2053)">
<path d="M36.6042 23.9511C36.2807 23.1512 35.3699 22.7646 34.5699 23.0882C33.7699 23.4116 33.3835 24.3223 33.7069 25.1224L35.5471 29.6744L30.0817 27.2651C29.686 27.0907 29.2358 27.088 28.8382 27.2577C26.9703 28.0546 24.9694 28.4587 22.891 28.4587C14.5259 28.4587 8.9066 21.9091 8.9066 15.7918C8.9066 8.80733 15.18 3.12499 22.891 3.12499C30.602 3.12499 36.8753 8.80733 36.8753 15.7918C36.8753 16.3368 36.8246 16.9893 36.7362 17.5819C36.6089 18.4354 37.1975 19.2305 38.051 19.3579C38.9046 19.4855 39.6997 18.8965 39.827 18.043C39.9388 17.2938 40.0003 16.4943 40.0003 15.7918C40.0003 11.5473 38.203 7.56467 34.9392 4.57757C31.714 1.6257 27.4352 0 22.891 0C18.3468 0 14.068 1.6257 10.8428 4.57749C7.92621 7.24686 6.18184 10.7115 5.84348 14.4474C2.17497 16.8768 0.00035727 20.7696 0.00035727 24.9628C0.00035727 27.5822 0.825591 30.0675 2.39645 32.2063L0.114263 37.8518C-0.124096 38.4413 0.0186385 39.1166 0.475279 39.5592C0.772857 39.8478 1.16497 40 1.56317 40C1.7759 39.9999 1.99043 39.9566 2.19309 39.8672L8.77348 36.9664C10.4288 37.5826 12.1786 37.8945 13.9846 37.8945C14.0237 37.8945 14.0621 37.8915 14.1004 37.8887C16.7127 37.8689 19.2523 37.1818 21.4518 35.8959C23.422 34.7441 25.0426 33.1617 26.1788 31.2931C27.2881 31.0938 28.3723 30.7929 29.4246 30.3906L37.8075 34.0859C38.0103 34.1752 38.2247 34.2188 38.4374 34.2188C38.8356 34.2187 39.2278 34.0665 39.5254 33.778C39.9821 33.3353 40.1248 32.6602 39.8864 32.0706L36.6042 23.9511ZM13.9848 34.7656C13.9635 34.7656 13.9427 34.7679 13.9215 34.7688C12.3261 34.7606 10.7904 34.447 9.35629 33.8352C8.95871 33.6654 8.50848 33.6681 8.11285 33.8426L4.45371 35.4556L5.6341 32.5356C5.85231 31.9959 5.75223 31.3795 5.37457 30.9364C3.90309 29.2101 3.12536 27.1446 3.12536 24.9628C3.12536 22.4659 4.17575 20.1 6.01356 18.3061C6.58574 21.4253 8.2002 24.409 10.6356 26.7529C13.6661 29.6696 17.6747 31.3592 22.0032 31.5627C19.971 33.5631 17.0629 34.7656 13.9848 34.7656Z" fill="black"/>
<path d="M22.8125 17.4219C23.6754 17.4219 24.375 16.7223 24.375 15.8594C24.375 14.9964 23.6754 14.2969 22.8125 14.2969C21.9496 14.2969 21.25 14.9964 21.25 15.8594C21.25 16.7223 21.9496 17.4219 22.8125 17.4219Z" fill="black"/>
<path d="M29.0625 17.4219C29.9254 17.4219 30.625 16.7223 30.625 15.8594C30.625 14.9964 29.9254 14.2969 29.0625 14.2969C28.1996 14.2969 27.5 14.9964 27.5 15.8594C27.5 16.7223 28.1996 17.4219 29.0625 17.4219Z" fill="black"/>
<path d="M16.5625 17.4219C17.4254 17.4219 18.125 16.7223 18.125 15.8594C18.125 14.9964 17.4254 14.2969 16.5625 14.2969C15.6996 14.2969 15 14.9964 15 15.8594C15 16.7223 15.6996 17.4219 16.5625 17.4219Z" fill="black"/>
</g>
<defs>
<clipPath id="clip0_115_2053">
<rect width="40" height="40" fill="white"/>
</clipPath>
</defs>
</svg>
