<svg width="40" height="40" viewBox="0 0 40 40" fill="none" xmlns="http://www.w3.org/2000/svg">
<g clip-path="url(#clip0_115_2067)">
<path d="M36.4844 12.5781H30.2365C28.9762 5.43977 22.7288 0 15.2344 0C6.83414 0 0 6.83414 0 15.2344C0 19.072 1.40883 22.6916 3.98211 25.5046L2.70781 29.6562C2.57773 30.08 2.69797 30.5409 3.01844 30.8472C3.24016 31.0591 3.53148 31.172 3.82828 31.172C3.96039 31.172 4.09359 31.1495 4.22219 31.1036L9.32742 29.2803C10.8338 29.9155 12.4142 30.2979 14.0437 30.4229V31.1802C14.0437 33.1187 15.6209 34.6958 17.5594 34.6958H32.1728L38.0679 39.7201C38.2842 39.9044 38.5548 40.0001 38.8283 40.0001C38.9947 40.0001 39.1623 39.9646 39.3192 39.8922C39.7343 39.7005 40 39.2852 40 38.8281V16.0938C40 14.1552 38.4229 12.5781 36.4844 12.5781ZM9.37258 26.848C9.23945 26.848 9.10609 26.8706 8.97844 26.9163L5.63383 28.1108L6.42438 25.5351C6.5518 25.1198 6.43914 24.6682 6.13156 24.3615C3.68898 21.9252 2.34375 18.6838 2.34375 15.2344C2.34375 8.12648 8.12648 2.34375 15.2344 2.34375C22.3423 2.34375 28.125 8.12648 28.125 15.2344C28.125 22.3423 22.3423 28.125 15.2344 28.125C13.3599 28.125 11.5523 27.7313 9.86164 26.9548C9.7068 26.8838 9.53992 26.848 9.37258 26.848ZM37.6562 36.2896L33.3647 32.632C33.1527 32.4513 32.8831 32.352 32.6045 32.352H17.5595C16.9133 32.352 16.3876 31.8263 16.3876 31.1802V30.4254C24.2512 29.834 30.4688 23.2467 30.4688 15.2344C30.4688 15.1299 30.4669 15.0259 30.4648 14.9219H36.4844C37.1305 14.9219 37.6562 15.4476 37.6562 16.0938V36.2896Z" fill="black"/>
<path d="M16.4453 22.6947V17.4289H17.002C19.7048 17.4289 21.9038 15.23 21.9038 12.527V10.7077C21.9038 10.6031 21.9922 10.5146 22.0968 10.5146H22.1875C22.8347 10.5146 23.3594 9.98996 23.3594 9.34277C23.3594 8.69559 22.8347 8.1709 22.1875 8.1709H22.0969C20.6981 8.1709 19.5602 9.30887 19.5602 10.7077V12.527C19.5602 13.9375 18.4126 15.0851 17.002 15.0851H16.4453V9.43387C16.4453 8.78668 15.9206 8.26199 15.2734 8.26199C14.6262 8.26199 14.1016 8.78668 14.1016 9.43387V15.0851H13.5449C12.1344 15.0851 10.9869 13.9376 10.9869 12.527V10.7077C10.9869 9.30895 9.84891 8.1709 8.45008 8.1709H8.35938C7.71219 8.1709 7.1875 8.69559 7.1875 9.34277C7.1875 9.98996 7.71219 10.5146 8.35938 10.5146H8.45008C8.55469 10.5146 8.64313 10.603 8.64313 10.7077V12.527C8.64313 15.2299 10.842 17.4289 13.5449 17.4289H14.1016V22.6947C14.1016 23.3418 14.6262 23.8665 15.2734 23.8665C15.9206 23.8665 16.4453 23.3419 16.4453 22.6947Z" fill="black"/>
</g>
<defs>
<clipPath id="clip0_115_2067">
<rect width="40" height="40" fill="white"/>
</clipPath>
</defs>
</svg>
