<svg width="40" height="40" viewBox="0 0 40 40" fill="none" xmlns="http://www.w3.org/2000/svg">
<path d="M5.625 0C2.52336 0 0 2.52336 0 5.625C0 8.72664 2.52336 11.25 5.625 11.25C8.72664 11.25 11.25 8.72664 11.25 5.625C11.25 2.52336 8.72664 0 5.625 0ZM5.625 8.75C3.90188 8.75 2.5 7.34812 2.5 5.625C2.5 3.90188 3.90188 2.5 5.625 2.5C7.34812 2.5 8.75 3.90188 8.75 5.625C8.75 7.34812 7.34812 8.75 5.625 8.75Z" fill="black"/>
<path d="M5.625 14.375C2.52336 14.375 0 16.8984 0 20C0 23.1016 2.52336 25.625 5.625 25.625C8.72664 25.625 11.25 23.1016 11.25 20C11.25 16.8984 8.72664 14.375 5.625 14.375ZM5.625 23.125C3.90188 23.125 2.5 21.7231 2.5 20C2.5 18.2769 3.90188 16.875 5.625 16.875C7.34812 16.875 8.75 18.2769 8.75 20C8.75 21.7231 7.34812 23.125 5.625 23.125Z" fill="black"/>
<path d="M5.625 28.75C2.52336 28.75 0 31.2734 0 34.375C0 37.4766 2.52336 40 5.625 40C8.72664 40 11.25 37.4766 11.25 34.375C11.25 31.2734 8.72664 28.75 5.625 28.75ZM5.625 37.5C3.90188 37.5 2.5 36.0981 2.5 34.375C2.5 32.6519 3.90188 31.25 5.625 31.25C7.34812 31.25 8.75 32.6519 8.75 34.375C8.75 36.0981 7.34812 37.5 5.625 37.5Z" fill="black"/>
<path d="M19.375 11.25H34.375C37.4766 11.25 40 8.72664 40 5.625C40 2.52336 37.4766 0 34.375 0H19.375C16.2734 0 13.75 2.52336 13.75 5.625C13.75 8.72664 16.2734 11.25 19.375 11.25ZM19.375 2.5H34.375C36.0981 2.5 37.5 3.90188 37.5 5.625C37.5 7.34812 36.0981 8.75 34.375 8.75H19.375C17.6519 8.75 16.25 7.34812 16.25 5.625C16.25 3.90188 17.6519 2.5 19.375 2.5Z" fill="black"/>
<path d="M34.375 14.375H19.375C16.2734 14.375 13.75 16.8984 13.75 20C13.75 23.1016 16.2734 25.625 19.375 25.625H34.375C37.4766 25.625 40 23.1016 40 20C40 16.8984 37.4766 14.375 34.375 14.375ZM34.375 23.125H19.375C17.6519 23.125 16.25 21.7231 16.25 20C16.25 18.2769 17.6519 16.875 19.375 16.875H34.375C36.0981 16.875 37.5 18.2769 37.5 20C37.5 21.7231 36.0981 23.125 34.375 23.125Z" fill="black"/>
<path d="M34.375 28.75H19.375C16.2734 28.75 13.75 31.2734 13.75 34.375C13.75 37.4766 16.2734 40 19.375 40H34.375C37.4766 40 40 37.4766 40 34.375C40 31.2734 37.4766 28.75 34.375 28.75ZM34.375 37.5H19.375C17.6519 37.5 16.25 36.0981 16.25 34.375C16.25 32.6519 17.6519 31.25 19.375 31.25H34.375C36.0981 31.25 37.5 32.6519 37.5 34.375C37.5 36.0981 36.0981 37.5 34.375 37.5Z" fill="black"/>
</svg>
