<svg width="40" height="40" viewBox="0 0 40 40" fill="none" xmlns="http://www.w3.org/2000/svg">
<g clip-path="url(#clip0_115_2030)">
<path d="M29.2151 22.8348C28.613 22.2351 27.869 21.777 27.0627 21.51L26.9913 21.4862L19.5578 19.7958L21.2265 27.2491L21.2509 27.323C21.5192 28.1332 21.9797 28.8806 22.583 29.4843L33.3664 39.9719L40 33.3231L29.2151 22.8348ZM33.3334 35.5844L24.7845 27.2705C24.7266 27.2119 24.6719 27.1506 24.6204 27.0862L26.8268 24.8813C26.8924 24.9341 26.9556 24.9905 27.0151 25.05L35.5563 33.3566L33.3334 35.5844ZM25.7501 36.9196L28.9606 40.0418H4.68323C2.10083 40.0418 0 37.941 0 35.3586V4.76135C0 2.17896 2.10083 0.078125 4.68323 0.078125H35.2805C37.8629 0.078125 39.9637 2.17896 39.9637 4.76135V28.9328L36.8414 25.8963V4.76135C36.8414 3.90045 36.1411 3.20038 35.2805 3.20038H4.68323C3.82233 3.20038 3.12225 3.90045 3.12225 4.76135V35.3586C3.12225 36.2192 3.82233 36.9196 4.68323 36.9196H25.7501ZM32.1582 10.4593H7.80548V7.33704H32.1582V10.4593ZM32.1582 16.7035H7.80548V13.5815H32.1582V16.7035ZM7.80548 19.8257H16.5475V22.948H7.80548V19.8257Z" fill="black"/>
</g>
<defs>
<clipPath id="clip0_115_2030">
<rect width="40" height="40" fill="white"/>
</clipPath>
</defs>
</svg>
