<svg width="80" height="80" viewBox="0 0 80 80" fill="none" xmlns="http://www.w3.org/2000/svg">
<circle cx="40" cy="40" r="40" fill="#0292A3"/>
<g clip-path="url(#clip0_208_7)">
<path d="M43.3757 64.9023H35.353C34.013 64.9023 32.9229 63.8144 32.9229 62.477V44.4167H28.2423C26.9022 44.4167 25.8121 43.3283 25.8121 41.9913V34.2524C25.8121 32.915 26.9022 31.827 28.2423 31.827H32.9229V27.9517C32.9229 24.1091 34.1318 20.8399 36.4186 18.4981C38.7158 16.1456 41.926 14.9023 45.7023 14.9023L51.8208 14.9123C53.1586 14.9146 54.2467 16.0025 54.2467 17.3376V24.523C54.2467 25.8604 53.157 26.9484 51.8174 26.9484L47.6978 26.9499C46.4415 26.9499 46.1216 27.2013 46.0532 27.2784C45.9404 27.4062 45.8062 27.7674 45.8062 28.765V31.8266H51.5078C51.937 31.8266 52.3528 31.9323 52.7102 32.1314C53.4812 32.5613 53.9605 33.3743 53.9605 34.2528L53.9574 41.9917C53.9574 43.3283 52.8673 44.4163 51.5273 44.4163H45.8062V62.477C45.8062 63.8144 44.7158 64.9023 43.3757 64.9023ZM35.8598 61.9711H42.8689V43.1044C42.8689 42.2114 43.597 41.4851 44.4914 41.4851H51.0204L51.0231 34.7582H44.491C43.5967 34.7582 42.8689 34.0319 42.8689 33.1389V28.765C42.8689 27.6198 42.9855 26.3174 43.8516 25.3386C44.8981 24.1553 46.5474 24.0187 47.6971 24.0187L51.3098 24.0172V17.8427L45.7 17.8336C39.6312 17.8336 35.8598 21.7108 35.8598 27.9517V33.1389C35.8598 34.0315 35.1321 34.7582 34.2377 34.7582H28.7491V41.4851H34.2377C35.1321 41.4851 35.8598 42.2114 35.8598 43.1044V61.9711ZM51.8151 17.8435H51.8155H51.8151Z" fill="white"/>
</g>
<defs>
<clipPath id="clip0_208_7">
<rect width="50" height="50" fill="white" transform="translate(15 15)"/>
</clipPath>
</defs>
</svg>
