<svg width="80" height="80" viewBox="0 0 80 80" fill="none" xmlns="http://www.w3.org/2000/svg">
<circle cx="40" cy="40" r="40" fill="#0292A3"/>
<g clip-path="url(#clip0_208_8)">
<path d="M64.2279 19.9667C63.6172 19.2198 62.7024 18.8086 61.6519 18.8086C61.0808 18.8086 60.4758 18.9288 59.854 19.1664L17.5299 35.3228C15.2838 36.18 14.9813 37.4663 15.0008 38.1567C15.0202 38.8472 15.3952 40.1144 17.6863 40.8434C17.7001 40.8476 17.7138 40.8518 17.7275 40.8556L26.5067 43.368L31.2544 56.9445C31.9018 58.7954 33.3548 59.9451 35.047 59.9451C36.114 59.9451 37.1634 59.4981 38.082 58.6527L43.5122 53.6528L51.3884 59.9947C51.3892 59.9955 51.3903 59.9959 51.3911 59.9966L51.4659 60.0569C51.4727 60.0623 51.48 60.068 51.4868 60.0733C52.3623 60.7523 53.3179 61.1109 54.2513 61.1113H54.2517C56.0755 61.1113 57.5278 59.7613 57.9508 57.6723L64.8856 23.4301C65.164 22.0557 64.9306 20.8258 64.2279 19.9667ZM29.4436 42.8908L46.3812 34.2379L35.8347 45.4443C35.6619 45.6278 35.5395 45.8525 35.4792 46.097L33.4456 54.3345L29.4436 42.8908ZM36.0972 56.4974C36.027 56.5619 35.9564 56.6195 35.8859 56.6725L37.7726 49.0309L41.2047 51.7947L36.0972 56.4974ZM62.0143 22.8484L55.0795 57.091C55.0128 57.4187 54.7995 58.1812 54.2513 58.1812C53.9805 58.1812 53.6402 58.0336 53.2919 57.7654L44.3671 50.5793C44.3659 50.5782 44.3644 50.577 44.3629 50.5762L39.0524 46.3L54.304 30.094C54.7923 29.5752 54.8365 28.7806 54.4089 28.2107C53.9809 27.6408 53.2054 27.4615 52.571 27.7857L27.4863 40.6008L18.5877 38.0549L60.8988 21.9035C61.2563 21.7669 61.5058 21.7383 61.6519 21.7383C61.7415 21.7383 61.901 21.749 61.9601 21.8218C62.0379 21.9168 62.1371 22.2407 62.0143 22.8484Z" fill="white"/>
</g>
<defs>
<clipPath id="clip0_208_8">
<rect width="50" height="50" fill="white" transform="translate(15 15)"/>
</clipPath>
</defs>
</svg>
