<svg width="80" height="80" viewBox="0 0 80 80" fill="none" xmlns="http://www.w3.org/2000/svg">
<circle cx="40" cy="40" r="40" fill="#0292A3"/>
<path d="M60.6055 22.4219H19.3945C16.9665 22.4219 15 24.4006 15 26.8164V53.1836C15 55.6138 16.981 57.5781 19.3945 57.5781H60.6055C63.0132 57.5781 65 55.6221 65 53.1836V26.8164C65 24.4049 63.0413 22.4219 60.6055 22.4219ZM59.99 25.3516C59.0922 26.2446 43.6409 41.6146 43.1074 42.1452C42.2773 42.9753 41.1738 43.4323 40 43.4323C38.8262 43.4323 37.7227 42.9752 36.8898 42.1425C36.5311 41.7855 21.2503 26.5854 20.01 25.3516H59.99ZM17.9297 52.5873V27.4146L30.5896 40.0078L17.9297 52.5873ZM20.0118 54.6484L32.6668 42.0739L34.821 44.2168C36.2044 45.6002 38.0437 46.362 40 46.362C41.9563 46.362 43.7956 45.6002 45.1763 44.2195L47.3332 42.0739L59.9882 54.6484H20.0118ZM62.0703 52.5873L49.4104 40.0078L62.0703 27.4146V52.5873Z" fill="white"/>
</svg>
