<svg width="70" height="70" viewBox="0 0 70 70" fill="none" xmlns="http://www.w3.org/2000/svg">
<circle cx="35" cy="35" r="35" fill="#F9A54B"/>
<g clip-path="url(#clip0_213_14)">
<path d="M51.4844 27.5781H45.2365C43.9762 20.4398 37.7288 15 30.2344 15C21.8341 15 15 21.8341 15 30.2344C15 34.072 16.4088 37.6916 18.9821 40.5046L17.7078 44.6562C17.5777 45.08 17.698 45.5409 18.0184 45.8472C18.2402 46.0591 18.5315 46.172 18.8283 46.172C18.9604 46.172 19.0936 46.1495 19.2222 46.1036L24.3274 44.2803C25.8338 44.9155 27.4142 45.2979 29.0437 45.4229V46.1802C29.0437 48.1187 30.6209 49.6958 32.5594 49.6958H47.1728L53.0679 54.7201C53.2842 54.9044 53.5548 55.0001 53.8283 55.0001C53.9947 55.0001 54.1623 54.9646 54.3192 54.8922C54.7343 54.7005 55 54.2852 55 53.8281V31.0938C55 29.1552 53.4229 27.5781 51.4844 27.5781ZM24.3726 41.848C24.2395 41.848 24.1061 41.8706 23.9784 41.9163L20.6338 43.1108L21.4244 40.5351C21.5518 40.1198 21.4391 39.6682 21.1316 39.3615C18.689 36.9252 17.3438 33.6838 17.3438 30.2344C17.3438 23.1265 23.1265 17.3438 30.2344 17.3438C37.3423 17.3438 43.125 23.1265 43.125 30.2344C43.125 37.3423 37.3423 43.125 30.2344 43.125C28.3599 43.125 26.5523 42.7313 24.8616 41.9548C24.7068 41.8838 24.5399 41.848 24.3726 41.848ZM52.6562 51.2896L48.3647 47.632C48.1527 47.4513 47.8831 47.352 47.6045 47.352H32.5595C31.9133 47.352 31.3876 46.8263 31.3876 46.1802V45.4254C39.2512 44.834 45.4688 38.2467 45.4688 30.2344C45.4688 30.1299 45.4669 30.0259 45.4648 29.9219H51.4844C52.1305 29.9219 52.6562 30.4476 52.6562 31.0938V51.2896Z" fill="black"/>
<path d="M31.4453 37.6947V32.4289H32.002C34.7048 32.4289 36.9038 30.23 36.9038 27.527V25.7077C36.9038 25.6031 36.9922 25.5146 37.0968 25.5146H37.1875C37.8347 25.5146 38.3594 24.99 38.3594 24.3428C38.3594 23.6956 37.8347 23.1709 37.1875 23.1709H37.0969C35.6981 23.1709 34.5602 24.3089 34.5602 25.7077V27.527C34.5602 28.9375 33.4126 30.0851 32.002 30.0851H31.4453V24.4339C31.4453 23.7867 30.9206 23.262 30.2734 23.262C29.6262 23.262 29.1016 23.7867 29.1016 24.4339V30.0851H28.5449C27.1344 30.0851 25.9869 28.9376 25.9869 27.527V25.7077C25.9869 24.3089 24.8489 23.1709 23.4501 23.1709H23.3594C22.7122 23.1709 22.1875 23.6956 22.1875 24.3428C22.1875 24.99 22.7122 25.5146 23.3594 25.5146H23.4501C23.5547 25.5146 23.6431 25.603 23.6431 25.7077V27.527C23.6431 30.2299 25.842 32.4289 28.5449 32.4289H29.1016V37.6947C29.1016 38.3418 29.6262 38.8665 30.2734 38.8665C30.9206 38.8665 31.4453 38.3419 31.4453 37.6947Z" fill="black"/>
</g>
<defs>
<clipPath id="clip0_213_14">
<rect width="40" height="40" fill="white" transform="translate(15 15)"/>
</clipPath>
</defs>
</svg>
