<svg width="80" height="80" viewBox="0 0 80 80" fill="none" xmlns="http://www.w3.org/2000/svg">
<circle cx="40" cy="40" r="40" fill="#0292A3"/>
<path d="M50.4759 15H29.5242C21.5155 15 15 21.5155 15 29.5242V50.4758C15 58.4845 21.5155 65 29.5242 65H50.4758C58.4845 65 65 58.4845 65 50.4759V29.5242C65 21.5155 58.4845 15 50.4759 15ZM61.0938 50.4758C61.0938 56.3306 56.3306 61.0938 50.4759 61.0938H29.5242C23.6694 61.0938 18.9062 56.3306 18.9062 50.4759V29.5242C18.9062 23.6694 23.6694 18.9062 29.5242 18.9062H50.4758C56.3306 18.9062 61.0938 23.6694 61.0938 29.5242V50.4758Z" fill="white"/>
<path d="M40 26.5234C32.5689 26.5234 26.5234 32.5689 26.5234 40C26.5234 47.4311 32.5689 53.4766 40 53.4766C47.4311 53.4766 53.4766 47.4311 53.4766 40C53.4766 32.5689 47.4311 26.5234 40 26.5234ZM40 49.5703C34.7229 49.5703 30.4297 45.2771 30.4297 40C30.4297 34.7229 34.7229 30.4297 40 30.4297C45.2771 30.4297 49.5703 34.7229 49.5703 40C49.5703 45.2771 45.2771 49.5703 40 49.5703Z" fill="white"/>
<path d="M53.6719 28.2812C54.7506 28.2812 55.625 27.4068 55.625 26.3281C55.625 25.2494 54.7506 24.375 53.6719 24.375C52.5932 24.375 51.7188 25.2494 51.7188 26.3281C51.7188 27.4068 52.5932 28.2812 53.6719 28.2812Z" fill="white"/>
</svg>
