<svg width="70" height="70" viewBox="0 0 70 70" fill="none" xmlns="http://www.w3.org/2000/svg">
<circle cx="35" cy="35" r="35" fill="#F9A54B"/>
<path d="M51.6042 38.9511C51.2807 38.1512 50.3699 37.7646 49.5699 38.0882C48.7699 38.4116 48.3835 39.3223 48.7069 40.1224L50.5471 44.6744L45.0817 42.2651C44.686 42.0907 44.2358 42.088 43.8382 42.2577C41.9703 43.0546 39.9694 43.4587 37.891 43.4587C29.5259 43.4587 23.9066 36.9091 23.9066 30.7918C23.9066 23.8073 30.18 18.125 37.891 18.125C45.602 18.125 51.8753 23.8073 51.8753 30.7918C51.8753 31.3368 51.8246 31.9893 51.7362 32.5819C51.6089 33.4354 52.1975 34.2305 53.051 34.3579C53.9046 34.4855 54.6997 33.8965 54.827 33.043C54.9388 32.2938 55.0003 31.4943 55.0003 30.7918C55.0003 26.5473 53.203 22.5647 49.9392 19.5776C46.714 16.6257 42.4352 15 37.891 15C33.3468 15 29.068 16.6257 25.8428 19.5775C22.9262 22.2469 21.1818 25.7115 20.8435 29.4474C17.175 31.8768 15.0004 35.7696 15.0004 39.9628C15.0004 42.5822 15.8256 45.0675 17.3964 47.2063L15.1143 52.8518C14.8759 53.4413 15.0186 54.1166 15.4753 54.5592C15.7729 54.8478 16.165 55 16.5632 55C16.7759 54.9999 16.9904 54.9566 17.1931 54.8672L23.7735 51.9664C25.4288 52.5826 27.1786 52.8945 28.9846 52.8945C29.0237 52.8945 29.0621 52.8915 29.1004 52.8887C31.7127 52.8689 34.2523 52.1818 36.4518 50.8959C38.422 49.7441 40.0426 48.1617 41.1788 46.2931C42.2881 46.0938 43.3723 45.7929 44.4246 45.3906L52.8075 49.086C53.0103 49.1752 53.2247 49.2188 53.4374 49.2188C53.8356 49.2187 54.2278 49.0665 54.5254 48.778C54.9821 48.3353 55.1248 47.6602 54.8864 47.0706L51.6042 38.9511ZM28.9848 49.7656C28.9635 49.7656 28.9427 49.7679 28.9215 49.7688C27.3261 49.7606 25.7904 49.447 24.3563 48.8352C23.9587 48.6654 23.5085 48.6681 23.1129 48.8426L19.4537 50.4556L20.6341 47.5356C20.8523 46.9959 20.7522 46.3795 20.3746 45.9364C18.9031 44.2101 18.1254 42.1446 18.1254 39.9628C18.1254 37.4659 19.1757 35.1 21.0136 33.3061C21.5857 36.4253 23.2002 39.409 25.6356 41.7529C28.6661 44.6696 32.6747 46.3592 37.0032 46.5627C34.971 48.5631 32.0629 49.7656 28.9848 49.7656Z" fill="black"/>
<path d="M37.8125 32.4219C38.6754 32.4219 39.375 31.7223 39.375 30.8594C39.375 29.9964 38.6754 29.2969 37.8125 29.2969C36.9496 29.2969 36.25 29.9964 36.25 30.8594C36.25 31.7223 36.9496 32.4219 37.8125 32.4219Z" fill="black"/>
<path d="M44.0625 32.4219C44.9254 32.4219 45.625 31.7223 45.625 30.8594C45.625 29.9964 44.9254 29.2969 44.0625 29.2969C43.1996 29.2969 42.5 29.9964 42.5 30.8594C42.5 31.7223 43.1996 32.4219 44.0625 32.4219Z" fill="black"/>
<path d="M31.5625 32.4219C32.4254 32.4219 33.125 31.7223 33.125 30.8594C33.125 29.9964 32.4254 29.2969 31.5625 29.2969C30.6996 29.2969 30 29.9964 30 30.8594C30 31.7223 30.6996 32.4219 31.5625 32.4219Z" fill="black"/>
</svg>
