<svg width="70" height="70" viewBox="0 0 70 70" fill="none" xmlns="http://www.w3.org/2000/svg">
<circle cx="35" cy="35" r="35" fill="#F9A54B"/>
<g clip-path="url(#clip0_213_15)">
<path d="M27.1631 39.2972H24.5898V35.314C24.5898 34.0182 24.0726 32.8418 23.2346 31.9781C24.6658 31.0269 25.6116 29.4006 25.6116 27.5568C25.6116 24.6313 23.2315 22.251 20.3058 22.251C17.3801 22.251 15 24.631 15 27.5568C15 29.1507 15.7074 30.5814 16.8234 31.5549C15.7138 32.4338 15 33.7915 15 35.314V47.178H22.8223V55.0003H30.7031V42.8372C30.7031 40.8853 29.115 39.2972 27.1631 39.2972ZM20.3058 24.5947C21.9391 24.5947 23.2678 25.9235 23.2678 27.5568C23.2678 29.1901 21.9391 30.5191 20.3058 30.5191C18.6725 30.5191 17.3438 29.1901 17.3438 27.5568C17.3438 25.9235 18.6725 24.5947 20.3058 24.5947ZM28.3594 52.6566H25.166V44.8343H17.3438V35.314C17.3438 33.9624 18.4433 32.8629 19.7949 32.8629C21.1465 32.8629 22.2461 33.9624 22.2461 35.314V41.6409H27.1631C27.8226 41.6409 28.3594 42.1777 28.3594 42.8372V52.6566Z" fill="black"/>
<path d="M53.1766 31.5549C54.2926 30.5814 55 29.1507 55 27.5568C55 24.631 52.6199 22.251 49.6942 22.251C46.7685 22.251 44.3884 24.631 44.3884 27.5568C44.3884 29.4003 45.3342 31.0269 46.7654 31.9781C45.9274 32.8418 45.4102 34.0182 45.4102 35.3137V39.2972H42.8369C40.885 39.2972 39.2969 40.8853 39.2969 42.8372V55.0003H47.1777V47.178H55V35.314C55 33.7915 54.2862 32.4338 53.1766 31.5549ZM49.6942 24.5947C51.3275 24.5947 52.6562 25.9235 52.6562 27.5568C52.6562 29.1901 51.3275 30.5191 49.6942 30.5191C48.0609 30.5191 46.7322 29.1901 46.7322 27.5568C46.7322 25.9235 48.0609 24.5947 49.6942 24.5947ZM52.6562 44.8343H44.834V52.6566H41.6406V42.8372C41.6406 42.1777 42.1774 41.6409 42.8369 41.6409H47.7539V35.314C47.7539 33.9624 48.8535 32.8629 50.2051 32.8629C51.5567 32.8629 52.6562 33.9624 52.6562 35.314V44.8343Z" fill="black"/>
<path d="M42.5 24.505V18.3072C42.5 16.4835 41.0165 15 39.1928 15H30.8072C28.9835 15 27.5 16.4835 27.5 18.3072V24.505C27.5 26.3287 28.9835 27.8125 30.8072 27.8125H32.2269L35 32.6157L37.7731 27.8125H39.1928C41.0165 27.8125 42.5 26.3287 42.5 24.505ZM40.1562 24.505C40.1562 25.0366 39.7241 25.4688 39.1928 25.4688H36.42L35 27.9282L33.58 25.4688H30.8072C30.2759 25.4688 29.8438 25.0366 29.8438 24.505V18.3072C29.8438 17.7759 30.2759 17.3438 30.8072 17.3438H39.1928C39.7241 17.3438 40.1562 17.7759 40.1562 18.3072V24.505Z" fill="black"/>
</g>
<defs>
<clipPath id="clip0_213_15">
<rect width="40" height="40" fill="white" transform="translate(15 15)"/>
</clipPath>
</defs>
</svg>
