<svg width="70" height="70" viewBox="0 0 70 70" fill="none" xmlns="http://www.w3.org/2000/svg">
<circle cx="35" cy="35" r="35" fill="#F9A54B"/>
<path d="M45.1562 32.9688C46.0192 32.9688 46.7188 32.2692 46.7188 31.4062C46.7188 30.5433 46.0192 29.8438 45.1562 29.8438C44.2933 29.8438 43.5938 30.5433 43.5938 31.4062C43.5938 32.2692 44.2933 32.9688 45.1562 32.9688Z" fill="black"/>
<path d="M48.75 18.125H46.7188V16.5625C46.7188 15.6995 46.0192 15 45.1562 15C44.2933 15 43.5938 15.6995 43.5938 16.5625V18.125H36.4844V16.5625C36.4844 15.6995 35.7848 15 34.9219 15C34.0589 15 33.3594 15.6995 33.3594 16.5625V18.125H26.3281V16.5625C26.3281 15.6995 25.6286 15 24.7656 15C23.9027 15 23.2031 15.6995 23.2031 16.5625V18.125H21.25C17.8038 18.125 15 20.9288 15 24.375V48.75C15 52.1963 17.8038 55 21.25 55H33.2031C34.0661 55 34.7656 54.3005 34.7656 53.4375C34.7656 52.5745 34.0661 51.875 33.2031 51.875H21.25C19.5269 51.875 18.125 50.4731 18.125 48.75V24.375C18.125 22.6519 19.5269 21.25 21.25 21.25H23.2031V22.8125C23.2031 23.6755 23.9027 24.375 24.7656 24.375C25.6286 24.375 26.3281 23.6755 26.3281 22.8125V21.25H33.3594V22.8125C33.3594 23.6755 34.0589 24.375 34.9219 24.375C35.7848 24.375 36.4844 23.6755 36.4844 22.8125V21.25H43.5938V22.8125C43.5938 23.6755 44.2933 24.375 45.1562 24.375C46.0192 24.375 46.7188 23.6755 46.7188 22.8125V21.25H48.75C50.4731 21.25 51.875 22.6519 51.875 24.375V33.2812C51.875 34.1442 52.5745 34.8438 53.4375 34.8438C54.3005 34.8438 55 34.1442 55 33.2812V24.375C55 20.9288 52.1963 18.125 48.75 18.125Z" fill="black"/>
<path d="M45.5469 36.0938C40.3344 36.0938 36.0938 40.3344 36.0938 45.5469C36.0938 50.7594 40.3344 55 45.5469 55C50.7594 55 55 50.7594 55 45.5469C55 40.3344 50.7594 36.0938 45.5469 36.0938ZM45.5469 51.875C42.0576 51.875 39.2188 49.0363 39.2188 45.5469C39.2188 42.0575 42.0576 39.2188 45.5469 39.2188C49.0362 39.2188 51.875 42.0575 51.875 45.5469C51.875 49.0363 49.0362 51.875 45.5469 51.875Z" fill="black"/>
<path d="M47.8125 43.9844H47.1094V42.3438C47.1094 41.4808 46.4098 40.7812 45.5469 40.7812C44.6839 40.7812 43.9844 41.4808 43.9844 42.3438V45.5469C43.9844 46.4098 44.6839 47.1094 45.5469 47.1094H47.8125C48.6755 47.1094 49.375 46.4098 49.375 45.5469C49.375 44.6839 48.6755 43.9844 47.8125 43.9844Z" fill="black"/>
<path d="M38.3594 32.9688C39.2223 32.9688 39.9219 32.2692 39.9219 31.4062C39.9219 30.5433 39.2223 29.8438 38.3594 29.8438C37.4964 29.8438 36.7969 30.5433 36.7969 31.4062C36.7969 32.2692 37.4964 32.9688 38.3594 32.9688Z" fill="black"/>
<path d="M31.5625 39.7656C32.4254 39.7656 33.125 39.0661 33.125 38.2031C33.125 37.3402 32.4254 36.6406 31.5625 36.6406C30.6996 36.6406 30 37.3402 30 38.2031C30 39.0661 30.6996 39.7656 31.5625 39.7656Z" fill="black"/>
<path d="M24.7656 32.9688C25.6286 32.9688 26.3281 32.2692 26.3281 31.4062C26.3281 30.5433 25.6286 29.8438 24.7656 29.8438C23.9027 29.8438 23.2031 30.5433 23.2031 31.4062C23.2031 32.2692 23.9027 32.9688 24.7656 32.9688Z" fill="black"/>
<path d="M24.7656 39.7656C25.6286 39.7656 26.3281 39.0661 26.3281 38.2031C26.3281 37.3402 25.6286 36.6406 24.7656 36.6406C23.9027 36.6406 23.2031 37.3402 23.2031 38.2031C23.2031 39.0661 23.9027 39.7656 24.7656 39.7656Z" fill="black"/>
<path d="M24.7656 46.5625C25.6286 46.5625 26.3281 45.8629 26.3281 45C26.3281 44.1371 25.6286 43.4375 24.7656 43.4375C23.9027 43.4375 23.2031 44.1371 23.2031 45C23.2031 45.8629 23.9027 46.5625 24.7656 46.5625Z" fill="black"/>
<path d="M31.5625 46.5625C32.4254 46.5625 33.125 45.8629 33.125 45C33.125 44.1371 32.4254 43.4375 31.5625 43.4375C30.6996 43.4375 30 44.1371 30 45C30 45.8629 30.6996 46.5625 31.5625 46.5625Z" fill="black"/>
<path d="M31.5625 32.9688C32.4254 32.9688 33.125 32.2692 33.125 31.4062C33.125 30.5433 32.4254 29.8438 31.5625 29.8438C30.6996 29.8438 30 30.5433 30 31.4062C30 32.2692 30.6996 32.9688 31.5625 32.9688Z" fill="black"/>
</svg>
