<svg width="70" height="70" viewBox="0 0 70 70" fill="none" xmlns="http://www.w3.org/2000/svg">
<circle cx="35" cy="35" r="35" fill="#F9A54B"/>
<path d="M20.625 15C17.5234 15 15 17.5234 15 20.625C15 23.7266 17.5234 26.25 20.625 26.25C23.7266 26.25 26.25 23.7266 26.25 20.625C26.25 17.5234 23.7266 15 20.625 15ZM20.625 23.75C18.9019 23.75 17.5 22.3481 17.5 20.625C17.5 18.9019 18.9019 17.5 20.625 17.5C22.3481 17.5 23.75 18.9019 23.75 20.625C23.75 22.3481 22.3481 23.75 20.625 23.75Z" fill="black"/>
<path d="M20.625 29.375C17.5234 29.375 15 31.8984 15 35C15 38.1016 17.5234 40.625 20.625 40.625C23.7266 40.625 26.25 38.1016 26.25 35C26.25 31.8984 23.7266 29.375 20.625 29.375ZM20.625 38.125C18.9019 38.125 17.5 36.7231 17.5 35C17.5 33.2769 18.9019 31.875 20.625 31.875C22.3481 31.875 23.75 33.2769 23.75 35C23.75 36.7231 22.3481 38.125 20.625 38.125Z" fill="black"/>
<path d="M20.625 43.75C17.5234 43.75 15 46.2734 15 49.375C15 52.4766 17.5234 55 20.625 55C23.7266 55 26.25 52.4766 26.25 49.375C26.25 46.2734 23.7266 43.75 20.625 43.75ZM20.625 52.5C18.9019 52.5 17.5 51.0981 17.5 49.375C17.5 47.6519 18.9019 46.25 20.625 46.25C22.3481 46.25 23.75 47.6519 23.75 49.375C23.75 51.0981 22.3481 52.5 20.625 52.5Z" fill="black"/>
<path d="M34.375 26.25H49.375C52.4766 26.25 55 23.7266 55 20.625C55 17.5234 52.4766 15 49.375 15H34.375C31.2734 15 28.75 17.5234 28.75 20.625C28.75 23.7266 31.2734 26.25 34.375 26.25ZM34.375 17.5H49.375C51.0981 17.5 52.5 18.9019 52.5 20.625C52.5 22.3481 51.0981 23.75 49.375 23.75H34.375C32.6519 23.75 31.25 22.3481 31.25 20.625C31.25 18.9019 32.6519 17.5 34.375 17.5Z" fill="black"/>
<path d="M49.375 29.375H34.375C31.2734 29.375 28.75 31.8984 28.75 35C28.75 38.1016 31.2734 40.625 34.375 40.625H49.375C52.4766 40.625 55 38.1016 55 35C55 31.8984 52.4766 29.375 49.375 29.375ZM49.375 38.125H34.375C32.6519 38.125 31.25 36.7231 31.25 35C31.25 33.2769 32.6519 31.875 34.375 31.875H49.375C51.0981 31.875 52.5 33.2769 52.5 35C52.5 36.7231 51.0981 38.125 49.375 38.125Z" fill="black"/>
<path d="M49.375 43.75H34.375C31.2734 43.75 28.75 46.2734 28.75 49.375C28.75 52.4766 31.2734 55 34.375 55H49.375C52.4766 55 55 52.4766 55 49.375C55 46.2734 52.4766 43.75 49.375 43.75ZM49.375 52.5H34.375C32.6519 52.5 31.25 51.0981 31.25 49.375C31.25 47.6519 32.6519 46.25 34.375 46.25H49.375C51.0981 46.25 52.5 47.6519 52.5 49.375C52.5 51.0981 51.0981 52.5 49.375 52.5Z" fill="black"/>
</svg>
