<svg width="70" height="70" viewBox="0 0 70 70" fill="none" xmlns="http://www.w3.org/2000/svg">
<circle cx="35" cy="35" r="35" fill="#F9A54B"/>
<g clip-path="url(#clip0_212_10)">
<path d="M44.2151 37.8348C43.613 37.2351 42.869 36.777 42.0627 36.51L41.9913 36.4862L34.5578 34.7958L36.2265 42.2491L36.2509 42.323C36.5192 43.1332 36.9797 43.8806 37.583 44.4843L48.3664 54.9719L55 48.3231L44.2151 37.8348ZM48.3334 50.5844L39.7845 42.2705C39.7266 42.2119 39.6719 42.1506 39.6204 42.0862L41.8268 39.8813C41.8924 39.9341 41.9556 39.9905 42.0151 40.05L50.5563 48.3566L48.3334 50.5844ZM40.7501 51.9196L43.9606 55.0418H19.6832C17.1008 55.0418 15 52.941 15 50.3586V19.7614C15 17.179 17.1008 15.0781 19.6832 15.0781H50.2805C52.8629 15.0781 54.9637 17.179 54.9637 19.7614V43.9328L51.8414 40.8963V19.7614C51.8414 18.9005 51.1411 18.2004 50.2805 18.2004H19.6832C18.8223 18.2004 18.1223 18.9005 18.1223 19.7614V50.3586C18.1223 51.2192 18.8223 51.9196 19.6832 51.9196H40.7501ZM47.1582 25.4593H22.8055V22.337H47.1582V25.4593ZM47.1582 31.7035H22.8055V28.5815H47.1582V31.7035ZM22.8055 34.8257H31.5475V37.948H22.8055V34.8257Z" fill="black"/>
</g>
<defs>
<clipPath id="clip0_212_10">
<rect width="40" height="40" fill="white" transform="translate(15 15)"/>
</clipPath>
</defs>
</svg>
